<?xml version="1.0" encoding="UTF-8" standalone="no"?>
<svg
   version="1.1"
   width="563.12024pt"
   height="210.66879pt"
   id="svg19"
   viewBox="0 0 563.12024 210.66879"
   sodipodi:docname="Stripes logo.svg"
   inkscape:version="1.2.2 (732a01da63, 2022-12-09)"
   xmlns:inkscape="http://www.inkscape.org/namespaces/inkscape"
   xmlns:sodipodi="http://sodipodi.sourceforge.net/DTD/sodipodi-0.dtd"
   xmlns="http://www.w3.org/2000/svg"
   xmlns:svg="http://www.w3.org/2000/svg">
  <defs
     id="defs23" />
  <sodipodi:namedview
     id="namedview21"
     pagecolor="#ffffff"
     bordercolor="#000000"
     borderopacity="0.25"
     inkscape:showpageshadow="2"
     inkscape:pageopacity="0.0"
     inkscape:pagecheckerboard="0"
     inkscape:deskcolor="#d1d1d1"
     showgrid="false"
     inkscape:zoom="0.46057098"
     inkscape:cx="398.4185"
     inkscape:cy="388.64802"
     inkscape:window-width="1366"
     inkscape:window-height="697"
     inkscape:window-x="-8"
     inkscape:window-y="-8"
     inkscape:window-maximized="1"
     inkscape:current-layer="svg19"
     inkscape:document-units="pt" />
  <g
     id="g878"
     inkscape:export-filename="g878.png"
     inkscape:export-xdpi="96"
     inkscape:export-ydpi="96"
     transform="translate(-16.366657,-61.848535)">
    <path
       d="m 573.34556,225.50733 -5.1544,11.9219 -5.2001,-11.9219 h -2.8162 l 6.582,14.8765 -0.4761,1.0529 c -0.3741,0.8655 -0.7769,1.4618 -1.2097,1.8042 -0.4327,0.3357 -0.9735,0.5035 -1.6302,0.5035 -0.5078,0 -0.9857,-0.0921 -1.4362,-0.282 -0.4498,-0.1873 -0.863,-0.4583 -1.2377,-0.816 l -1.1566,2.0282 c 0.4913,0.448 1.0723,0.7904 1.7462,1.0272 0.6762,0.2325 1.3696,0.3509 2.0843,0.3509 0.769,0 1.4709,-0.1269 2.1081,-0.379 0.6397,-0.2539 1.2274,-0.6799 1.7591,-1.2829 0.5365,-0.5988 1.0186,-1.4234 1.4514,-2.4744 l 7.2326,-16.4091 z m -26.6215,0.5639 c -0.9216,-0.4693 -1.9812,-0.7037 -3.1805,-0.7037 -1.5027,0 -2.8144,0.3485 -3.9404,1.0419 -0.7642,0.4718 -1.3605,1.0553 -1.8128,1.7333 -0.3662,-0.7037 -0.8484,-1.2872 -1.4813,-1.7181 -1.0315,-0.7043 -2.2589,-1.0571 -3.6865,-1.0571 -1.2939,0 -2.4286,0.27341 -3.4063,0.816 -0.7447,0.4157 -1.294,0.9967 -1.7438,1.6644 v -2.3406 h -2.5903 v 14.9174 h 2.702 v -7.6848 c 0,-1.0877 0.1898,-1.9959 0.5646,-2.7283 0.3741,-0.73179 0.8996,-1.2854 1.5759,-1.6619 0.6762,-0.37299 1.4514,-0.56219 2.3339,-0.56219 1.2378,0 2.1918,0.36619 2.8571,1.098 0.6677,0.7325 0.9991,1.8195 0.9991,3.2642 v 8.275 h 2.7026 v -7.6848 c 0,-1.0877 0.1825,-1.9959 0.5487,-2.7283 0.3638,-0.7318 0.8875,-1.2854 1.5631,-1.6619 0.6745,-0.373 1.4624,-0.5622 2.3621,-0.5622 1.2189,0 2.1686,0.3662 2.8424,1.098 0.6762,0.7325 1.0144,1.8195 1.0144,3.2642 v 8.275 h 2.702 v -8.5826 c 0,-1.4643 -0.2582,-2.6764 -0.7752,-3.6328 -0.5169,-0.9558 -1.2335,-1.6687 -2.1508,-2.13811 z m -46.1576,5.8526 c 0.0794,-0.6762 0.2326,-1.3134 0.5359,-1.8713 0.4114,-0.758 0.9863,-1.3501 1.7163,-1.7718 0.7318,-0.4224 1.5649,-0.6354 2.5061,-0.6354 0.9558,0 1.7938,0.213 2.5171,0.6354 0.7232,0.4217 1.2896,1.0095 1.7035,1.759 0.31,0.5621 0.4583,1.2036 0.5249,1.8841 z m 8.5846,-5.6005 c -1.1066,-0.6372 -2.3816,-0.954 -3.8263,-0.954 -1.4252,0 -2.7087,0.3211 -3.8434,0.9711 -1.1346,0.6439 -2.0239,1.5417 -2.6721,2.6855 -0.6481,1.145 -0.971,2.4585 -0.971,3.9398 0,1.4838 0.3314,2.7972 0.9991,3.9404 0.6653,1.1432 1.6022,2.0459 2.8143,2.7026 1.2097,0.6543 2.6117,0.9839 4.2047,0.9839 1.2402,0 2.3602,-0.2069 3.3655,-0.6183 1.0034,-0.4132 1.8414,-1.0138 2.5195,-1.7999 l -1.4923,-1.7486 c -0.5444,0.603 -1.178,1.051 -1.8988,1.3525 -0.7214,0.3015 -1.5246,0.4522 -2.4072,0.4522 -1.0681,0 -2.0154,-0.2154 -2.8424,-0.6506 -0.8246,-0.4284 -1.4685,-1.0333 -1.9269,-1.8152 -0.3363,-0.5657 -0.5059,-1.2121 -0.5969,-1.8969 h 12.0641 c 0.0177,-0.1312 0.0324,-0.2734 0.0434,-0.4236 0.007,-0.1489 0.0128,-0.2801 0.0128,-0.3943 0,-1.5374 -0.3143,-2.8851 -0.943,-4.0374 -0.6311,-1.1542 -1.4966,-2.0496 -2.6031,-2.6892 z m -26.8327,9.414 c -0.4413,0.7983 -1.0425,1.4123 -1.8024,1.8451 -0.7599,0.4327 -1.6083,0.6481 -2.547,0.6481 -0.9564,0 -1.8109,-0.2154 -2.5604,-0.6481 -0.7513,-0.4328 -1.3501,-1.0468 -1.8023,-1.8451 -0.4499,-0.7971 -0.6739,-1.7206 -0.6739,-2.7692 0,-1.0699 0.224,-1.994 0.6739,-2.7734 0.4522,-0.7794 1.051,-1.3842 1.8023,-1.817 0.7495,-0.4309 1.604,-0.6463 2.5604,-0.6463 0.9387,0 1.7871,0.2154 2.547,0.6463 0.7599,0.4328 1.3611,1.0376 1.8024,1.817 0.4388,0.7794 0.661,1.7035 0.661,2.7734 0,1.0486 -0.2222,1.9721 -0.661,2.7692 z m 0.6329,-7.8698 c -0.5127,-0.6745 -1.0895,-1.2598 -1.8024,-1.6559 -1.0119,-0.5621 -2.1466,-0.8441 -3.4063,-0.8441 -1.4423,0 -2.7319,0.3186 -3.8672,0.9582 -1.1364,0.6372 -2.0324,1.5222 -2.6867,2.6569 -0.6592,1.1371 -0.9864,2.4652 -0.9864,3.9855 0,1.518 0.3272,2.8485 0.9864,3.9941 0.6543,1.1457 1.5503,2.0349 2.6867,2.6721 1.1353,0.6415 2.4249,0.9583 3.8672,0.9583 1.2964,0 2.4505,-0.2844 3.4643,-0.8594 0.7453,-0.4199 1.3397,-1.0443 1.8561,-1.7675 v 2.459 h 2.5903 v -20.8836 h -2.702 z m -27.5243,7.9967 c -0.3375,0.8631 -0.8868,1.5198 -1.6467,1.9702 -0.7605,0.4517 -1.6455,0.6757 -2.6593,0.6757 -1.0314,0 -1.8389,-0.2191 -2.42,-0.661 -0.5835,-0.4389 -0.8722,-1.0291 -0.8722,-1.759 0,-0.6372 0.2326,-1.1823 0.7019,-1.6321 0.4694,-0.4523 1.38,-0.6763 2.7301,-0.6763 h 4.1662 z m -3.6883,-10.4967 c -1.1798,0 -2.3101,0.1636 -3.3886,0.4932 -1.081,0.3271 -2.005,0.8007 -2.7735,1.4208 l 1.1261,2.0264 c 0.5811,-0.4889 1.294,-0.8789 2.1381,-1.167 0.8441,-0.293 1.7071,-0.4376 2.5879,-0.4376 1.333,0 2.3339,0.3149 2.9992,0.9436 0.6659,0.6286 0.9991,1.5155 0.9991,2.6611 v 0.5316 h -4.2779 c -1.4837,0 -2.6593,0.1984 -3.5315,0.592 -0.874,0.3943 -1.5008,0.9198 -1.8859,1.5741 -0.3833,0.6592 -0.5774,1.391 -0.5774,2.1967 0,0.8459 0.224,1.5997 0.6763,2.265 0.4498,0.6671 1.0919,1.1865 1.9268,1.5631 0.8338,0.3747 1.8048,0.5621 2.9138,0.5621 1.3672,0 2.5037,-0.2564 3.4039,-0.7733 0.661,-0.379 1.1237,-0.8893 1.4923,-1.4642 v 2.0696 h 2.5598 v -9.005 c 0,-2.0453 -0.5529,-3.5675 -1.6577,-4.5599 -1.109,-0.9949 -2.6831,-1.4923 -4.7308,-1.4923 z m -26.0875,3.0121 c 0.7709,-0.4328 1.6407,-0.6482 2.616,-0.6482 0.8075,0 1.5631,0.1745 2.2674,0.5212 0.7019,0.3467 1.2982,0.885 1.7847,1.6193 l 2.0562,-1.3245 c -0.581,-1.0486 -1.4038,-1.8426 -2.4609,-2.3767 -1.0614,-0.5365 -2.2674,-0.8014 -3.6175,-0.8014 -1.5222,0 -2.8766,0.3211 -4.0674,0.9711 -1.1926,0.6439 -2.1252,1.5417 -2.799,2.6855 -0.6757,1.145 -1.0138,2.4585 -1.0138,3.9398 0,1.4838 0.3381,2.7972 1.0138,3.9404 0.6738,1.1432 1.6064,2.0459 2.799,2.7026 1.1908,0.6543 2.5452,0.9839 4.0674,0.9839 1.3501,0 2.5561,-0.2759 3.6175,-0.8313 1.0571,-0.5536 1.8799,-1.3458 2.4609,-2.3773 l -2.0562,-1.2939 c -0.4865,0.7324 -1.0828,1.2707 -1.7847,1.6174 -0.7043,0.346 -1.4599,0.523 -2.2674,0.523 -0.9753,0 -1.8451,-0.2154 -2.616,-0.6506 -0.769,-0.4284 -1.3781,-1.0376 -1.8304,-1.828 -0.4498,-0.7879 -0.6738,-1.7157 -0.6738,-2.7862 0,-1.0699 0.224,-1.9916 0.6738,-2.7728 0.4523,-0.7776 1.0614,-1.3824 1.8304,-1.8133 z m -20.0096,7.4846 c -0.3381,0.8631 -0.8868,1.5198 -1.6449,1.9702 -0.7623,0.4517 -1.6473,0.6757 -2.6611,0.6757 -1.0315,0 -1.8372,-0.2191 -2.4182,-0.661 -0.5859,-0.4389 -0.874,-1.0291 -0.874,-1.759 0,-0.6372 0.2325,-1.1823 0.7019,-1.6321 0.4693,-0.4523 1.38,-0.6763 2.7301,-0.6763 h 4.1662 z m -3.6859,-10.4967 c -1.1822,0 -2.3126,0.1636 -3.3917,0.4932 -1.0785,0.3271 -2.0044,0.8007 -2.7728,1.4208 l 1.1261,2.0264 c 0.581,-0.4889 1.2939,-0.8789 2.1399,-1.167 0.8422,-0.293 1.7053,-0.4376 2.586,-0.4376 1.3348,0 2.334,0.3149 2.9993,0.9436 0.6652,0.6286 0.9991,1.5155 0.9991,2.6611 v 0.5316 h -4.2785 c -1.4832,0 -2.6587,0.1984 -3.5309,0.592 -0.8722,0.3943 -1.5008,0.9198 -1.886,1.5741 -0.3833,0.6592 -0.5774,1.391 -0.5774,2.1967 0,0.8459 0.224,1.5997 0.6763,2.265 0.4498,0.6671 1.0913,1.1865 1.9269,1.5631 0.8331,0.3747 1.8066,0.5621 2.9132,0.5621 1.3696,0 2.5067,-0.2564 3.4045,-0.7733 0.661,-0.379 1.1236,-0.8893 1.4917,-1.4642 v 2.0696 h 2.5604 v -9.005 c 0,-2.0453 -0.5536,-3.5675 -1.6577,-4.5599 -1.109,-0.9949 -2.6831,-1.4923 -4.7284,-1.4923 z"
       style="fill:#002d46;fill-rule:evenodd"
       id="path2" />
    <path
       d="m 331.32746,201.96993 h 20.4314 v -70.462 h -20.4314 z m 128.8993,-41.3882 c 0.3406,-2.185 0.954,-4.1876 1.9104,-5.96 1.4856,-2.7496 3.5571,-4.8877 6.2225,-6.416 2.6611,-1.5271 5.7403,-2.2912 9.2327,-2.2912 3.4906,0 6.5478,0.7641 9.1681,2.2912 2.6184,1.5283 4.6704,3.645 6.1559,6.3519 0.9821,1.7914 1.5851,3.8128 1.8799,6.0241 z m 35.8982,-25.6699 c -5.5468,-2.9694 -11.765,-4.4525 -18.6638,-4.4525 -7.1594,0 -13.5998,1.5503 -19.3163,4.6484 -5.7208,3.1005 -10.1739,7.4004 -13.3605,12.9021 -3.1884,5.4992 -4.7796,11.7431 -4.7796,18.7279 0,6.9872 1.6577,13.2054 4.9755,18.6637 3.3185,5.4584 7.9907,9.7558 14.0155,12.8997 6.0241,3.1433 13.0522,4.7155 21.0856,4.7155 6.3715,0 12.0037,-0.982 16.8963,-2.9479 4.8877,-1.966 8.9483,-4.7797 12.1783,-8.4466 l -10.8697,-11.7864 c -2.3596,2.2692 -4.956,3.9721 -7.7923,5.1049 -2.84,1.1389 -6.0913,1.7029 -9.7601,1.7029 -4.2761,0 -7.9431,-0.7617 -10.9985,-2.2906 -3.0572,-1.5265 -5.4601,-3.7317 -7.2045,-6.6144 -0.9601,-1.5826 -1.6296,-3.3398 -2.0624,-5.2386 h 53.2712 c 0.086,-0.8722 0.177,-1.8109 0.263,-2.8167 0.0861,-1.001 0.1313,-1.8988 0.1313,-2.6825 0,-7.5988 -1.615,-14.1014 -4.8468,-19.5164 -3.2318,-5.4132 -7.6178,-9.6032 -13.1622,-12.5725 z m -238.6404,-18.99099 h -20.5626 v 1.7548 40.73999 19.32291 c 0,8.3819 2.312,14.6911 6.9414,18.92629 4.6271,4.2351 11.0888,6.3518 19.3829,6.3518 3.1457,0 6.1773,-0.37289 9.1039,-1.1132 0.5963,-0.1532 1.1627,-0.3272 1.72,-0.5103 v -17.0189 c -2.2156,1.5955 -4.9024,2.4029 -8.0719,2.4029 -2.6184,0 -4.6942,-0.8288 -6.2207,-2.4889 -1.5307,-1.6577 -2.293,-3.9728 -2.293,-6.9415 v -29.9338 h 16.5856 v -15.7134 h -16.5856 z m -37.2093,43.77829 c -3.0767,-1.8365 -6.4526,-3.35259 -10.1238,-4.54949 -3.6755,-1.1975 -7.3919,-2.1984 -11.1517,-3.0126 -3.7591,-0.8118 -7.1764,-1.6211 -10.2532,-2.4353 -3.0749,-0.81181 -5.5529,-1.94211 -7.4328,-3.3954 -1.8793,-1.45321 -2.8186,-3.374 -2.8186,-5.7659 0,-1.87991 0.5774,-3.5895 1.7291,-5.1269 1.1542,-1.5393 2.9694,-2.75571 5.4474,-3.6542 2.4786,-0.89781 5.7665,-1.3452 9.8681,-1.3452 3.9294,0 8.0315,0.57679 12.3034,1.73099 4.2718,1.15171 8.4148,2.8832 12.4321,5.1891 l 6.5375,-15.634 c -4.1022,-2.56219 -8.9081,-4.5281 -14.4201,-5.89529 -5.5096,-1.36781 -11.0845,-2.05021 -16.7235,-2.05021 -8.4576,0 -15.4876,1.2616 -21.0821,3.7787 -5.5981,2.5213 -9.7619,5.8953 -12.4968,10.12681 -2.7344,4.22669 -4.0997,8.90499 -4.0997,14.03189 0,4.7003 0.9173,8.6083 2.7539,11.726 1.8371,3.1201 4.3133,5.6396 7.4352,7.5622 3.1158,1.9226 6.535,3.46 10.2514,4.6142 3.7164,1.1517 7.4109,2.1356 11.0864,2.9473 3.6712,0.8118 7.069,1.6645 10.1891,2.5629 3.1152,0.8978 5.6152,2.0495 7.4969,3.46001 1.8774,1.40989 2.8186,3.3112 2.8186,5.70369 0,1.8799 -0.5988,3.5248 -1.7938,4.9347 -1.1969,1.4086 -3.0548,2.5433 -5.5743,3.39591 -2.5214,0.8545 -5.8331,1.2811 -9.9328,1.2811 -5.3827,0 -10.7226,-0.8746 -16.0192,-2.6269 -5.299,-1.7505 -9.8272,-3.9941 -13.5845,-6.7284 l -7.0495,15.6358 c 4.0136,3.0749 9.334,5.5749 15.9551,7.4951 6.621,1.925 13.5216,2.8857 20.6981,2.8857 8.4582,0 15.5071,-1.2811 21.1467,-3.8458 5.639,-2.5622 9.8461,-5.9387 12.6238,-10.1244 2.7753,-4.1858 4.1644,-8.7976 4.1644,-13.8402 0,-4.61431 -0.9625,-8.479 -2.8833,-11.5991 -1.9226,-3.1176 -4.4225,-5.5962 -7.4975,-7.43281 z m 193.3399,17.4517 c -1.615,2.926 -3.7549,5.1714 -6.4166,6.7437 -2.6654,1.5716 -5.6994,2.3571 -9.1033,2.3571 -3.404,0 -6.4618,-0.7855 -9.1681,-2.3571 -2.7069,-1.5723 -4.8687,-3.8177 -6.4813,-6.7437 -1.6192,-2.9242 -2.4224,-6.3952 -2.4224,-10.4131 0,-4.1016 0.8032,-7.5964 2.4224,-10.4772 1.6126,-2.8809 3.7744,-5.0861 6.4813,-6.6144 2.7063,-1.5271 5.7641,-2.293 9.1681,-2.293 3.4039,0 6.4379,0.7659 9.1033,2.293 2.6617,1.5283 4.8016,3.7335 6.4166,6.6144 1.615,2.8808 2.4224,6.3756 2.4224,10.4772 0,4.0179 -0.8074,7.4889 -2.4224,10.4131 z m 5.8953,-42.1743 c -5.2838,-3.0121 -11.2865,-4.5172 -18.0113,-4.5172 -6.0223,0 -11.2823,1.311 -15.7806,3.927 -2.3748,1.38481 -4.4421,3.1567 -6.22,5.2947 v -8.1731 h -19.5147 v 109.3783 h 20.4314 v -46.4309 c 1.6602,1.8457 3.5333,3.3978 5.6329,4.6319 4.4525,2.6202 9.6032,3.9294 15.451,3.9294 6.7248,0 12.7275,-1.5075 18.0113,-4.5178 5.2795,-3.0138 9.472,-7.2039 12.5701,-12.5761 3.1006,-5.368 4.6509,-11.7632 4.6509,-19.185 0,-7.3334 -1.5503,-13.7072 -4.6509,-19.1222 -3.0981,-5.4131 -7.2906,-9.62699 -12.5701,-12.639 z m -119.3547,5.9063 v -9.3774 h -19.514 v 70.46271 h 20.4295 v -33.2664 c 0,-6.7205 1.7053,-11.6985 5.1093,-14.9302 3.4045,-3.23 7.9882,-4.8468 13.7523,-4.8468 0.6976,0 1.4191,0.0452 2.1594,0.1312 0.741,0.0861 1.5076,0.2173 2.2937,0.3943 v -18.9909 c -6.6363,0 -12.2668,1.2897 -16.8963,3.8647 -2.9949,1.6644 -5.4003,3.8885 -7.3339,6.55879 z m 277.0381,30.0449 c -1.5265,-2.5299 -3.5809,-4.5172 -6.1536,-5.96 -2.5775,-1.438 -5.3509,-2.5513 -8.3178,-3.3393 -2.9675,-0.7836 -5.9814,-1.3952 -9.0368,-1.8322 -3.0578,-0.4352 -5.8483,-0.8722 -8.3825,-1.3092 -2.5323,-0.437 -4.5819,-1.1133 -6.156,-2.0306 -1.5698,-0.9174 -2.3577,-2.2479 -2.3577,-3.9941 0,-1.9208 1.051,-3.4924 3.1457,-4.7156 2.0953,-1.2231 5.4992,-1.8322 10.2148,-1.8322 3.1439,0 6.4379,0.39 9.8894,1.1779 3.4454,0.7856 6.8298,2.1399 10.1501,4.0588 l 6.9397,-14.536 c -3.4039,-1.9207 -7.5751,-3.4283 -12.5055,-4.522 -4.9352,-1.087 -9.8467,-1.6339 -14.7362,-1.6339 -6.8109,0 -12.6177,0.9625 -17.4175,2.8808 -4.8034,1.9208 -8.5131,4.6075 -11.1315,8.0548 -2.6202,3.4496 -3.9294,7.3986 -3.9294,11.8511 0,4.0179 0.7623,7.2948 2.2906,9.8247 1.5265,2.5348 3.5809,4.5178 6.156,5.9582 2.5732,1.4422 5.368,2.5555 8.3825,3.3392 3.0121,0.7861 6.0437,1.3977 9.1015,1.8371 3.0554,0.4346 5.8282,0.8716 8.3178,1.3068 2.489,0.4394 4.4958,1.0724 6.0242,1.8988 1.5264,0.8313 2.2912,2.0758 2.2912,3.7341 0,2.0086 -0.9839,3.5803 -2.948,4.7149 -1.9616,1.1352 -5.3033,1.701 -10.0182,1.701 -4.2786,0 -8.6236,-0.6305 -13.0316,-1.8969 -4.4116,-1.2634 -8.272,-2.8595 -11.5905,-4.7821 l -6.679,14.536 c 3.316,2.1857 7.7258,3.9966 13.2268,5.437 5.4993,1.4422 11.2658,2.1618 17.2881,2.1618 7.0734,0 13.0761,-0.9625 18.009,-2.8832 4.9328,-1.9184 8.7096,-4.5606 11.328,-7.9217 2.6184,-3.3612 3.9294,-7.1808 3.9294,-11.4587 0,-4.01599 -0.7641,-7.2912 -2.293,-9.8253 z"
       style="fill:#002d46;fill-rule:evenodd"
       id="path4" />
    <g
       id="Layer1001"
       transform="translate(30.939857,16.284135)">
      <defs
         id="defs11">
        <radialGradient
           id="grad1"
           cx="57.725342"
           cy="111.06125"
           r="105.43527"
           gradientTransform="scale(0.73599824,1.3586989)"
           fx="57.725342"
           fy="111.06125"
           gradientUnits="userSpaceOnUse">
          <stop
             offset="0%"
             stop-color="#ffe8bb"
             stop-opacity="1.0000"
             id="stop6" />
          <stop
             offset="100%"
             stop-color="#ca9c4b"
             stop-opacity="1.0000"
             id="stop8" />
        </radialGradient>
      </defs>
      <path
         d="m 2.0466,237.2478 40.7138,18.9854 40.1633,-18.7309 V 221.7414 L 42.4894,240.5919 2.0466,221.7322 Z M 42.8898,45.5644 H 42.8752 42.8605 42.8459 42.8306 42.816 42.8007 42.7855 42.7702 42.7543 42.7391 42.7238 42.7079 42.6921 42.6762 42.6603 42.6445 42.6286 42.6127 42.5969 42.5804 42.5645 42.548 42.5322 42.5157 42.4998 42.4833 42.4668 42.451 42.4345 42.4186 42.4022 42.3863 42.3704 42.3539 42.3381 42.3222 42.3063 42.2905 42.2746 42.2593 42.2435 42.2282 42.2123 42.1971 42.1818 42.1666 42.1519 42.1367 42.122 42.1074 42.0927 42.0781 c -0.1831,0 -0.3357,0 -0.4169,0.0042 -0.2844,0.0043 -0.5365,0.0843 -0.8118,0.1441 v 0 c -3.5009,0.7495 -6.0009,3.4429 -6.4874,7.1636 v 0 c -0.4199,3.2232 1.2012,6.5136 4.3085,8.1799 v 0 c 0.329,0.177 0.4712,0.3814 0.4608,0.7562 v 0 c -0.0348,1.3885 0.0146,2.7819 -0.0647,4.1705 v 0 c -0.0366,0.672 -0.0348,0.6738 -0.7019,0.6738 v 0 C 33.3177,66.6549 28.2683,66.6549 23.2189,66.6549 v 0 c -0.1483,0 -0.3509,-0.0647 -0.437,0.0708 v 0 c -0.1074,0.1703 0.0818,0.3076 0.1703,0.4394 v 0 c 1.109,1.7114 2.2351,3.4125 3.3264,5.1349 v 0 c 0.2649,0.4156 0.5493,0.5773 1.0486,0.5773 v 0 c 3.5162,-0.0213 7.0348,-0.0109 10.5511,-0.0109 v 0 c 0.725,0 0.7385,0 0.7232,0.7104 v 0 c -0.0775,3.5681 -0.1636,7.1423 -0.2435,10.7104 v 0 c -0.0513,2.4047 -0.1056,4.8077 -0.1526,7.213 v 0 c -0.0732,3.6236 -0.1337,7.2497 -0.2069,10.8776 v 0 c -0.0342,1.5997 -0.2777,3.1671 -0.8569,4.6637 v 0 c -0.9455,2.4523 -2.6654,3.9727 -5.3357,4.2333 v 0 c -2.0282,0.1978 -3.955,-0.2435 -5.7403,-1.2017 v 0 c -0.2088,-0.1142 -0.4157,-0.2369 -0.6177,-0.3614 v 0 c -1.0895,-0.6829 -2.0434,-1.5637 -2.8637,-2.5518 v 0 c -0.4096,-0.4907 -0.788,-1.0138 -1.1414,-1.5503 v 0 c -0.1807,-0.2692 -0.3534,-0.5444 -0.5188,-0.8221 v 0 c -0.1269,-0.2069 -0.3747,-0.4932 -0.4309,-0.7282 v 0 c -0.0256,-0.0989 0,-0.2154 0.0714,-0.2887 v 0 c 0.1416,-0.1373 0.6568,-0.1373 0.8441,-0.1721 v 0 c 0.3699,-0.069 0.7386,-0.1355 1.1109,-0.202 v 0 c 0.7061,-0.1337 1.4148,-0.2631 2.1209,-0.3919 v 0 c 0.1203,-0.0219 0.293,-0.007 0.3205,-0.1489 v 0 c 0.0238,-0.1355 -0.1355,-0.2002 -0.2326,-0.271 v 0 c -1.2982,-0.9692 -2.3748,-2.1514 -3.3246,-3.4515 v 0 C 19.4079,96.4068 17.987,93.388 16.8585,90.2234 v 0 c -0.0513,-0.1361 -0.0409,-0.3491 -0.2326,-0.3662 v 0 c -0.1483,-0.0067 -0.224,0.155 -0.3118,0.2624 v 0 c -0.1081,0.1319 -0.2131,0.2674 -0.3168,0.3986 v 0 c -1.6516,2.1124 -2.868,4.541 -3.5504,7.1203 v 0 c -0.2905,1.0986 -0.4846,2.229 -0.5682,3.374 v 0 c -0.0519,0.6652 -0.0733,1.333 -0.0867,1.9982 v 0 c -0.0214,1.2445 0.0867,2.4072 0.2631,3.6432 v 0 c 0.0561,0.3748 0.2282,0.4242 0.5444,0.2631 v 0 c 0.8746,-0.4505 1.7572,-0.9241 2.6336,-1.3483 v 0 c 0.0989,-0.0452 0.2155,-0.0665 0.3229,-0.0366 v 0 c 0.2649,0.086 0.2173,0.3961 0.2564,0.6115 v 0 c 0.0494,0.2778 0.1013,0.5579 0.1654,0.8399 v 0 c 0.1184,0.5444 0.263,1.0852 0.4351,1.6211 v 0 c 0.8033,2.528 2.1832,4.8321 3.9899,6.7718 v 0 c 2.713,2.9156 6.0351,4.8815 9.7326,6.2743 v 0 c 1.0138,0.379 2.0904,0.5835 3.092,0.9778 v 0 c 2.8546,1.1218 5.1501,3.0163 7.0709,5.3784 v 0 c 0.816,1.0058 1.5759,2.0477 2.11,3.2385 v 0 h 0.075 0.0757 c 0.5359,-1.1908 1.2964,-2.2327 2.11,-3.2385 v 0 c 1.9207,-2.3621 4.2181,-4.2566 7.0733,-5.3784 v 0 c 1.0034,-0.3943 2.0758,-0.5988 3.0939,-0.9778 v 0 c 3.6926,-1.3928 7.0171,-3.3587 9.7301,-6.2743 v 0 c 1.8066,-1.9397 3.1848,-4.2438 3.9899,-6.7718 v 0 c 0.1702,-0.5359 0.3167,-1.0767 0.4327,-1.6211 v 0 c 0.0647,-0.282 0.1166,-0.5621 0.1685,-0.8399 v 0 c 0.0384,-0.2154 -0.011,-0.5255 0.2557,-0.6115 v 0 c 0.1056,-0.0299 0.2222,-0.009 0.3235,0.0366 v 0 c 0.8758,0.4242 1.7566,0.8978 2.6306,1.3483 v 0 c 0.3192,0.1611 0.4913,0.1117 0.5475,-0.2631 v 0 c 0.1763,-1.236 0.2819,-2.3987 0.26,-3.6432 v 0 c -0.0129,-0.6652 -0.0342,-1.333 -0.0837,-1.9982 v 0 c -0.086,-1.145 -0.2801,-2.2754 -0.5706,-3.374 v 0 C 71.838,95.0592 70.621,92.6306 68.9718,90.5182 v 0 C 68.8687,90.387 68.7606,90.2515 68.6556,90.1196 v 0 c -0.0909,-0.1074 -0.166,-0.2691 -0.3124,-0.2624 v 0 c -0.1917,0.0171 -0.1832,0.2301 -0.2326,0.3662 v 0 c -1.1285,3.1646 -2.5494,6.1834 -4.5453,8.9098 v 0 c -0.9515,1.3001 -2.0263,2.4823 -3.3245,3.4515 v 0 c -0.0989,0.0708 -0.2582,0.1355 -0.2326,0.271 v 0 c 0.0281,0.1422 0.2002,0.127 0.3186,0.1489 v 0 c 0.7087,0.1288 1.4148,0.2582 2.1234,0.3919 v 0 c 0.3724,0.0665 0.7404,0.133 1.1109,0.202 v 0 c 0.1892,0.0348 0.6994,0.0348 0.8416,0.1721 v 0 c 0.0715,0.0733 0.0971,0.1898 0.0715,0.2887 v 0 c -0.0562,0.235 -0.304,0.5213 -0.4285,0.7282 v 0 c -0.1685,0.2777 -0.3406,0.5529 -0.5194,0.8221 v 0 c -0.351,0.5365 -0.7343,1.0596 -1.1432,1.5503 v 0 c -0.8179,0.9881 -1.7718,1.8689 -2.8637,2.5518 v 0 c -0.2002,0.1245 -0.409,0.2472 -0.6159,0.3614 v 0 c -1.7846,0.9582 -3.7121,1.3995 -5.7421,1.2017 v 0 c -2.6679,-0.2606 -4.3884,-1.781 -5.3339,-4.2333 v 0 c -0.5792,-1.4966 -0.8221,-3.064 -0.8545,-4.6637 v 0 c -0.0775,-3.6279 -0.1355,-7.254 -0.2111,-10.8776 v 0 c -0.0452,-2.4053 -0.0971,-4.8083 -0.1526,-7.213 v 0 c -0.08,-3.5681 -0.1618,-7.1423 -0.2411,-10.7104 v 0 c -0.0153,-0.7104 -0.0049,-0.7104 0.7233,-0.7104 v 0 c 3.5137,0 7.0342,-0.0129 10.548,0.0109 v 0 c 0.4999,0 0.7861,-0.1617 1.051,-0.5773 v 0 c 1.0919,-1.7224 2.218,-3.4235 3.3246,-5.1349 v 0 c 0.0903,-0.1318 0.2777,-0.2691 0.1721,-0.4394 v 0 c -0.0861,-0.1355 -0.2905,-0.0708 -0.437,-0.0708 v 0 c -5.0494,0 -10.1007,0 -15.1452,0.0018 v 0 c -0.6677,0 -0.6653,-0.0018 -0.7019,-0.6738 v 0 c -0.0799,-1.3886 -0.0323,-2.782 -0.0671,-4.1705 v 0 c -0.0086,-0.3748 0.1336,-0.5792 0.4608,-0.7562 v 0 c 3.1073,-1.6663 4.7308,-4.9567 4.3084,-8.1799 v 0 c -0.4864,-3.7207 -2.9864,-6.4141 -6.4849,-7.1636 v 0 C 43.842,45.6529 43.5905,45.5729 43.3085,45.5686 v 0 z m -57.463,21.5598 v 132.3609 l 9.7668,4.5526 V 76.891 H 23.7402 L 18.5595,67.1242 Z M 38.2335,53.8004 c -0.0025,-2.4072 1.8621,-4.2981 4.2498,-4.3213 v 0 c 2.3902,0.0232 4.2548,1.9141 4.2529,4.3213 v 0 c -0.0085,2.3681 -1.8823,4.2437 -4.2529,4.2693 v 0 C 40.1152,58.0441 38.2377,56.1685 38.2335,53.8004 Z M 66.412,67.1242 60.6369,76.891 h 29.1392 v 127.4024 l 9.7686,-4.552 V 67.1242 Z m -64.3654,79.7832 40.7138,18.9842 40.1633,-18.737 7e-4,-15.6608 -40.164,18.7358 -40.7138,-18.9842 z m 0,30.1572 40.7138,18.9891 40.1633,-18.737 7e-4,-15.6602 -40.164,18.7327 -40.7138,-18.9848 z m 0,30.1695 40.7138,18.9848 40.1633,-18.7273 V 191.8161 L 42.7604,210.5568 2.0466,191.5671 Z"
         style="fill:url(#grad1)"
         id="path13" />
      <path
         d="M 42.7604,256.2332 82.9237,237.5023 V 221.7414 L 42.7604,240.4656 Z M 42.8898,45.5644 H 42.8752 42.8605 42.8459 42.8306 42.816 42.8007 42.7855 42.7702 42.7604 v 3.9257 c 2.2553,0.1605 3.9777,1.9971 3.9758,4.3103 v 0 c -0.0079,2.2753 -1.7382,4.0948 -3.9758,4.2571 v 72.7673 c 0.517,-1.0186 1.192,-1.9323 1.9086,-2.8179 v 0 c 1.9207,-2.3621 4.2181,-4.2566 7.0733,-5.3784 v 0 c 1.0034,-0.3943 2.0758,-0.5988 3.0939,-0.9778 v 0 c 3.6926,-1.3928 7.0171,-3.3587 9.7301,-6.2743 v 0 c 1.8066,-1.9397 3.1848,-4.2438 3.9899,-6.7718 v 0 c 0.1702,-0.5359 0.3167,-1.0767 0.4327,-1.6211 v 0 c 0.0647,-0.282 0.1166,-0.5621 0.1685,-0.8399 v 0 c 0.0384,-0.2154 -0.011,-0.5255 0.2557,-0.6115 v 0 c 0.1056,-0.0299 0.2222,-0.009 0.3235,0.0366 v 0 c 0.8758,0.4242 1.7566,0.8978 2.6306,1.3483 v 0 c 0.3192,0.1611 0.4913,0.1117 0.5475,-0.2631 v 0 c 0.1763,-1.236 0.2819,-2.3987 0.26,-3.6432 v 0 c -0.0129,-0.6652 -0.0342,-1.333 -0.0837,-1.9982 v 0 c -0.086,-1.145 -0.2801,-2.2754 -0.5706,-3.374 v 0 C 71.838,95.0592 70.621,92.6306 68.9718,90.5182 v 0 C 68.8687,90.387 68.7606,90.2515 68.6556,90.1196 v 0 c -0.0909,-0.1074 -0.166,-0.2691 -0.3124,-0.2624 v 0 c -0.1917,0.0171 -0.1832,0.2301 -0.2326,0.3662 v 0 c -1.1285,3.1646 -2.5494,6.1834 -4.5453,8.9098 v 0 c -0.9515,1.3001 -2.0263,2.4823 -3.3245,3.4515 v 0 c -0.0989,0.0708 -0.2582,0.1355 -0.2326,0.271 v 0 c 0.0281,0.1422 0.2002,0.127 0.3186,0.1489 v 0 c 0.7087,0.1288 1.4148,0.2582 2.1234,0.3919 v 0 c 0.3724,0.0665 0.7404,0.133 1.1109,0.202 v 0 c 0.1892,0.0348 0.6994,0.0348 0.8416,0.1721 v 0 c 0.0715,0.0733 0.0971,0.1898 0.0715,0.2887 v 0 c -0.0562,0.235 -0.304,0.5213 -0.4285,0.7282 v 0 c -0.1685,0.2777 -0.3406,0.5529 -0.5194,0.8221 v 0 c -0.351,0.5365 -0.7343,1.0596 -1.1432,1.5503 v 0 c -0.8179,0.9881 -1.7718,1.8689 -2.8637,2.5518 v 0 c -0.2002,0.1245 -0.409,0.2472 -0.6159,0.3614 v 0 c -1.7846,0.9582 -3.7121,1.3995 -5.7421,1.2017 v 0 c -2.6679,-0.2606 -4.3884,-1.781 -5.3339,-4.2333 v 0 c -0.5792,-1.4966 -0.8221,-3.064 -0.8545,-4.6637 v 0 c -0.0775,-3.6279 -0.1355,-7.254 -0.2111,-10.8776 v 0 c -0.0452,-2.4053 -0.0971,-4.8083 -0.1526,-7.213 v 0 c -0.08,-3.5681 -0.1618,-7.1423 -0.2411,-10.7104 v 0 c -0.0153,-0.7104 -0.0049,-0.7104 0.7233,-0.7104 v 0 c 3.5137,0 7.0342,-0.0129 10.548,0.0109 v 0 c 0.4999,0 0.7861,-0.1617 1.051,-0.5773 v 0 c 1.0919,-1.7224 2.218,-3.4235 3.3246,-5.1349 v 0 c 0.0903,-0.1318 0.2777,-0.2691 0.1721,-0.4394 v 0 c -0.0861,-0.1355 -0.2905,-0.0708 -0.437,-0.0708 v 0 c -5.0494,0 -10.1007,0 -15.1452,0.0018 v 0 c -0.6677,0 -0.6653,-0.0018 -0.7019,-0.6738 v 0 c -0.0799,-1.3886 -0.0323,-2.782 -0.0671,-4.1705 v 0 c -0.0086,-0.3748 0.1336,-0.5792 0.4608,-0.7562 v 0 c 3.1073,-1.6663 4.7308,-4.9567 4.3084,-8.1799 v 0 c -0.4864,-3.7207 -2.9864,-6.4141 -6.4849,-7.1636 v 0 C 43.842,45.6529 43.5905,45.5729 43.3085,45.5686 v 0 z M 66.412,67.1242 60.6369,76.891 h 29.1392 v 127.4024 l 9.7686,-4.552 V 67.1242 Z m -23.6516,98.7674 40.1633,-18.737 7e-4,-15.6608 -40.164,18.7358 z m 0,30.1621 40.1633,-18.737 7e-4,-15.6602 -40.164,18.7327 z m 0,30.1652 40.1633,-18.7273 v -15.6755 l -40.1633,18.7407 z"
         style="fill:#ffffff;fill-opacity:0;fill-rule:evenodd"
         id="path15" />
    </g>
  </g>
</svg>
