<?xml version="1.0" encoding="UTF-8" standalone="no"?>
<!-- Created with Inkscape (http://www.inkscape.org/) -->

<svg
   width="210mm"
   height="297mm"
   viewBox="0 0 210 297"
   version="1.1"
   id="svg5"
   xml:space="preserve"
   inkscape:version="1.2.2 (732a01da63, 2022-12-09)"
   sodipodi:docname="stripes_watermark.svg"
   xmlns:inkscape="http://www.inkscape.org/namespaces/inkscape"
   xmlns:sodipodi="http://sodipodi.sourceforge.net/DTD/sodipodi-0.dtd"
   xmlns="http://www.w3.org/2000/svg"
   xmlns:svg="http://www.w3.org/2000/svg"><sodipodi:namedview
     id="namedview7"
     pagecolor="#ffffff"
     bordercolor="#000000"
     borderopacity="0.25"
     inkscape:showpageshadow="2"
     inkscape:pageopacity="0.0"
     inkscape:pagecheckerboard="0"
     inkscape:deskcolor="#d1d1d1"
     inkscape:document-units="mm"
     showgrid="false"
     showguides="true"
     inkscape:zoom="0.92114197"
     inkscape:cx="465.18345"
     inkscape:cy="561.25984"
     inkscape:window-width="1366"
     inkscape:window-height="697"
     inkscape:window-x="-8"
     inkscape:window-y="-8"
     inkscape:window-maximized="1"
     inkscape:current-layer="layer1" /><defs
     id="defs2" /><g
     inkscape:label="Layer 1"
     inkscape:groupmode="layer"
     id="layer1"><path
       style="fill:#0037e6;stroke-width:0.07326;stroke:none;stroke-opacity:1;fill-opacity:0.09844559"
       d="m 104.04599,223.00863 c -1.14194,-0.53369 -7.004818,-3.26825 -13.028628,-6.0768 -6.023807,-2.80855 -12.444134,-5.80233 -14.267394,-6.65284 l -3.315017,-1.54638 v -6.21268 c 0,-3.41697 0.01875,-6.21267 0.04167,-6.21267 0.03725,0 3.167795,1.45674 18.419861,8.57135 2.39744,1.11833 6.53058,3.04538 9.184768,4.28234 l 4.8258,2.24901 3.45259,-1.61107 c 1.89892,-0.88609 7.39214,-3.44755 12.20716,-5.69215 4.81502,-2.2446 10.51831,-4.90449 12.67399,-5.91087 2.15568,-1.00639 3.96062,-1.84656 4.01099,-1.86704 0.0728,-0.0296 0.0916,1.25791 0.0916,6.29366 v 6.33091 l -1.63003,0.75711 c -2.43008,1.12871 -27.64168,12.88487 -29.22411,13.6272 l -1.36697,0.64125 z m 1.58675,-23.36592 c -0.20146,-0.093 -5.11355,-2.38324 -10.915748,-5.08952 -5.802193,-2.70628 -12.964278,-6.04661 -15.915743,-7.42295 l -5.366298,-2.50244 v -6.29265 c 0,-5.00585 0.01873,-6.28476 0.09157,-6.25407 0.108819,0.0458 30.919889,14.4219 31.908269,14.88801 l 0.68118,0.32123 16.02211,-7.47785 c 8.81216,-4.11282 16.06332,-7.49413 16.11369,-7.51402 0.0728,-0.0288 0.0916,1.25244 0.0916,6.25907 v 6.29523 l -1.11721,0.5165 c -1.03638,0.47913 -13.73918,6.40062 -25.84091,12.04591 -2.83979,1.32472 -5.21341,2.40588 -5.27472,2.40258 -0.0613,-0.003 -0.2763,-0.0821 -0.47777,-0.17503 z m 38.27838,-68.53782 V 79.9703 h -11.69353 c -11.10182,0 -11.69166,-0.0065 -11.65682,-0.128205 0.0311,-0.10882 3.55362,-6.097335 4.33085,-7.362832 l 0.25884,-0.421444 13.28143,0.01851 13.28142,0.01851 0.0184,53.246491 0.0184,53.2465 -0.78759,0.37021 c -1.40454,0.6602 -6.27111,2.92863 -6.66672,3.10752 l -0.38461,0.17391 z m -76.630013,50.65434 c -0.302198,-0.14139 -2.041208,-0.95235 -3.864468,-1.80215 L 60.101622,178.412 V 125.23511 72.058215 h 13.281282 13.281283 l 0.265882,0.494506 c 1.155992,2.149983 3.867513,7.307711 3.867513,7.3566 0,0.03354 -5.142855,0.06098 -11.428567,0.06098 H 67.940447 v 51.025629 c 0,28.06409 -0.02473,51.02443 -0.05495,51.02299 -0.03022,-0.001 -0.302197,-0.11831 -0.604395,-0.25969 z m 35.457863,-7.68599 c -1.83333,-0.86019 -9.168498,-4.28528 -16.30036,-7.6113 l -12.967029,-6.04731 -0.01872,-6.30734 c -0.0103,-3.46903 0.0066,-6.29166 0.03761,-6.27252 0.04984,0.0308 7.69132,3.59672 26.818849,12.51509 l 5.81211,2.70994 11.0377,-5.1481 c 6.07074,-2.83146 13.31243,-6.20952 16.09265,-7.5068 l 5.05494,-2.35869 0.0187,6.26687 c 0.0103,3.44678 0.005,6.28045 -0.0114,6.29705 -0.0356,0.0356 -32.2016,15.0403 -32.22546,15.03245 -0.009,-0.003 -1.51624,-0.70913 -3.34957,-1.56934 z m 1.90476,-23.33313 c -0.74542,-0.35424 -5.970688,-2.79544 -11.611718,-5.42491 -5.641022,-2.62946 -12.349811,-5.75765 -14.908418,-6.95153 l -4.652013,-2.17068 -0.01872,-6.27985 c -0.0103,-3.45392 -7.32e-4,-6.27985 0.02133,-6.27985 0.02203,0 1.975513,0.90264 4.341068,2.00588 2.365554,1.10323 8.454853,3.94213 13.531773,6.30866 5.07692,2.36654 10.458018,4.87598 11.957998,5.57654 1.49997,0.70056 2.765,1.27375 2.81117,1.27375 0.0752,0 9.71713,-4.48335 26.16763,-12.16752 3.17459,-1.48288 5.83686,-2.71673 5.91616,-2.7419 0.14273,-0.0453 0.14399,0.0173 0.12546,6.23421 l -0.0187,6.27997 -16.07054,7.49798 c -8.83879,4.12389 -16.10802,7.49468 -16.15384,7.49066 -0.0458,-0.004 -0.69319,-0.29717 -1.43861,-0.65141 z m 0.88036,-27.74466 c -0.56411,-1.04582 -1.55694,-2.3029 -2.71981,-3.44373 -1.71894,-1.68636 -3.298748,-2.611 -5.606248,-3.28126 -1.75417,-0.50954 -3.83602,-1.44878 -5.39593,-2.43442 -4.087058,-2.58242 -6.632778,-6.22905 -7.33929,-10.51321 -0.08418,-0.51044 -0.190658,-0.49574 -1.571954,0.21703 -0.954071,0.49232 -1.264379,0.62197 -1.330478,0.55587 -0.256882,-0.25689 -0.374539,-3.76269 -0.180249,-5.370857 0.339293,-2.808388 1.425229,-5.44681 3.203078,-7.782289 0.432079,-0.567602 0.614975,-0.68426 0.691636,-0.441152 0.228875,0.725815 1.127135,2.858575 1.6108,3.824558 1.10036,2.197658 2.157167,3.737943 3.472377,5.060939 0.50366,0.506646 1.04762,1.023221 1.20879,1.147941 0.19083,0.14767 0.26749,0.25096 0.21978,0.29612 -0.0403,0.0382 -0.79853,0.1931 -1.68498,0.34433 -0.88645,0.15123 -1.661172,0.2999 -1.721611,0.33037 -0.06044,0.0305 -0.120559,0.10961 -0.133599,0.17587 -0.03404,0.17297 1.26087,2.09484 1.91295,2.83915 1.23768,1.41274 2.87953,2.42483 4.64504,2.86335 0.85921,0.21341 2.59565,0.23283 3.3192,0.0371 2.054258,-0.55565 3.270318,-2.00403 3.883688,-4.62564 0.21396,-0.91453 0.28089,-1.84955 0.32544,-4.546858 0.0226,-1.369963 0.057,-3.133698 0.0764,-3.919412 0.0194,-0.785714 0.0526,-2.499999 0.0737,-3.809523 0.0211,-1.309523 0.054,-2.826006 0.0729,-3.369962 0.019,-0.543956 0.0546,-2.027472 0.0792,-3.296702 0.0246,-1.26923 0.0691,-3.329669 0.0991,-4.578753 0.0299,-1.249084 0.0403,-2.325458 0.023,-2.391943 -0.0208,-0.07998 -0.14645,-0.138135 -0.37143,-0.171873 -0.18702,-0.02804 -2.28569,-0.04062 -4.663698,-0.02793 -3.42649,0.01827 -4.35886,0.0035 -4.4933,-0.07137 -0.0933,-0.05194 -0.32186,-0.331127 -0.50789,-0.620418 -0.18603,-0.28929 -0.86177,-1.329215 -1.50163,-2.310943 -0.63987,-0.981729 -1.14587,-1.830629 -1.12445,-1.886446 0.0328,-0.08541 1.05983,-0.101486 6.4838,-0.101486 5.075438,0 6.457458,-0.01946 6.504128,-0.09158 0.0326,-0.05037 0.0694,-0.988002 0.0819,-2.083634 0.026,-2.288576 0.11632,-2.002875 -0.82449,-2.606663 -2.05615,-1.319579 -3.239858,-3.732962 -2.977108,-6.069844 0.33768,-3.003449 2.192788,-5.171738 5.043428,-5.894861 1.4543,-0.368914 2.98496,-0.178982 4.44986,0.552162 1.70654,0.851743 2.87491,2.316858 3.38869,4.249339 0.24563,0.923879 0.27225,2.319335 0.0602,3.15387 -0.43355,1.70598 -1.42376,3.086798 -2.90652,4.05306 -0.3464,0.225742 -0.67165,0.460839 -0.72278,0.522438 -0.0716,0.0863 -0.0864,0.561732 -0.0643,2.072278 0.0158,1.078154 0.0545,2.001489 0.0861,2.051855 0.0452,0.07213 1.42579,0.09158 6.50224,0.09158 5.67421,0 6.44992,0.0132 6.48722,0.110392 0.0258,0.0673 -0.37195,0.746467 -1.01904,1.739926 -0.58377,0.896244 -1.24621,1.9169 -1.47209,2.268125 -0.22588,0.351224 -0.50042,0.697377 -0.61009,0.76923 -0.18672,0.122333 -0.48144,0.129274 -4.63484,0.10915 -2.43949,-0.01182 -4.53434,0.0071 -4.65522,0.04196 l -0.21978,0.06345 v 1.496506 c 0,1.649196 0.0913,6.706504 0.14605,8.089911 0.036,0.909197 0.0615,2.169983 0.18244,9.010985 0.1059,5.991054 0.13002,6.401344 0.45219,7.692314 0.45179,1.81043 1.43084,3.24138 2.6663,3.897 0.82541,0.43802 1.46164,0.56847 2.7435,0.56253 0.9801,-0.005 1.23373,-0.0314 1.85303,-0.19603 2.40969,-0.64066 4.15018,-2.01752 5.85249,-4.62976 0.60363,-0.92628 0.6879,-1.18237 0.40803,-1.23997 -0.0907,-0.0187 -0.84066,-0.15272 -1.66667,-0.29791 -1.66178,-0.29211 -1.75824,-0.31404 -1.75824,-0.39969 0,-0.0327 0.1876,-0.20117 0.41689,-0.37428 2.1111,-1.5939 4.45309,-5.24599 5.89222,-9.18831 0.18099,-0.495803 0.34816,-0.844207 0.40505,-0.844207 0.24561,0 1.60378,1.992515 2.22219,3.260072 0.80632,1.652748 1.28297,3.215053 1.50869,4.945053 0.22174,1.699522 0.12622,5.089782 -0.15422,5.473302 -0.0823,0.11249 -0.20668,0.065 -1.34725,-0.51465 -0.94726,-0.48137 -1.28753,-0.62204 -1.38215,-0.57136 -0.0899,0.0481 -0.1732,0.31081 -0.29335,0.92472 -0.40238,2.05603 -1.36818,4.16681 -2.71486,5.93341 -0.50203,0.65858 -1.93745,2.10528 -2.6927,2.71386 -1.97049,1.58783 -4.50947,2.90808 -7.12007,3.70239 -1.42957,0.43496 -2.17387,0.74119 -3.00941,1.23815 -1.1087,0.65944 -1.79546,1.20128 -2.83368,2.23571 -1.10383,1.09979 -1.9888,2.21652 -2.55277,3.22126 -0.19292,0.34369 -0.37782,0.62489 -0.4109,0.62489 -0.0331,0 -0.19718,-0.25406 -0.36467,-0.56458 z m 1.2492,-58.30804 c 1.36085,-0.403763 2.28171,-1.445296 2.49589,-2.82297 0.16038,-1.031604 -0.21782,-2.171057 -0.97172,-2.927599 -1.81328,-1.819645 -4.89215,-1.043752 -5.64316,1.422109 -0.12169,0.399563 -0.14608,0.639535 -0.12286,1.208791 0.025,0.613719 0.0614,0.779396 0.26755,1.218921 0.30216,0.644249 0.62599,1.039303 1.14484,1.396645 0.8339,0.57433 1.93286,0.770123 2.82946,0.504103 z"
       id="path191" /></g></svg>
